<svg xmlns="http://www.w3.org/2000/svg" viewBox="0 0 512 512">
  <defs><linearGradient id="bg" x1="0" y1="0" x2="1" y2="1"><stop offset="0" stop-color="#f1f5f9"/><stop offset="1" stop-color="#e0e7ff"/></linearGradient><filter id="s" x="-20%" y="-20%" width="140%" height="140%"><feDropShadow dx="0" dy="18" stdDeviation="18" flood-color="#0f172a" flood-opacity=".18"/></filter></defs>
  <rect width="512" height="512" rx="88" fill="url(#bg)"/><circle cx="406" cy="106" r="72" fill="#14b8a6" opacity=".18"/><circle cx="112" cy="400" r="90" fill="#fff" opacity=".44"/>
  <g filter="url(#s)"><path d="M112 456c20-93 80-141 144-141s124 48 144 141H112z" fill="#1d4ed8"/><path d="M202 300h108v66c0 30-108 30-108 0z" fill="#b97854"/><circle cx="256" cy="218" r="92" fill="#b97854"/><path d="M160 211c8-79 55-124 118-112 58 11 82 54 76 119-20-38-69-39-115-56-24 37-55 48-79 49z" fill="#0f172a"/><circle cx="224" cy="224" r="8" fill="#111827" opacity=".72"/><circle cx="290" cy="224" r="8" fill="#111827" opacity=".72"/><path d="M229 266c18 17 45 17 63 0" fill="none" stroke="#6b3b2a" stroke-width="8" stroke-linecap="round" opacity=".55"/><path d="M182 456h148l-74-56z" fill="#fff" opacity=".92"/></g>
  <text x="256" y="482" text-anchor="middle" font-family="Arial, sans-serif" font-size="28" font-weight="800" fill="#0f172a" opacity=".38">Business</text>
</svg>
