<svg xmlns="http://www.w3.org/2000/svg" viewBox="0 0 512 512">
  <defs>
    <linearGradient id="bg" x1="0" y1="0" x2="1" y2="1">
      <stop offset="0" stop-color="#e8f3ff"/>
      <stop offset="1" stop-color="#f5dcff"/>
    </linearGradient>
    <filter id="shadow" x="-20%" y="-20%" width="140%" height="140%">
      <feDropShadow dx="0" dy="18" stdDeviation="18" flood-color="#0f172a" flood-opacity=".18"/>
    </filter>
  </defs>
  <rect width="512" height="512" rx="88" fill="url(#bg)"/>
  <circle cx="408" cy="104" r="70" fill="#2563eb" opacity=".16"/>
  <circle cx="112" cy="398" r="88" fill="#fff" opacity=".48"/>
  <g filter="url(#shadow)">
    <path d="M112 456c20-93 80-141 144-141s124 48 144 141H112z" fill="#fff"/>
    <path d="M202 300h108v66c0 30-108 30-108 0z" fill="#c98662"/>
    <circle cx="256" cy="218" r="92" fill="#c98662"/>
    <path d="M160 211c8-79 55-124 118-112 58 11 82 54 76 119-20-38-69-39-115-56-24 37-55 48-79 49z" fill="#172554"/>
    <path d="M180 211c-9 32 0 75 25 96-43-10-68-49-68-91 0-39 17-75 49-95-15 28-16 58-6 90z" fill="#172554" opacity=".95"/>
    <circle cx="224" cy="224" r="8" fill="#1f2937" opacity=".72"/>
    <circle cx="290" cy="224" r="8" fill="#1f2937" opacity=".72"/>
    <path d="M229 266c18 17 45 17 63 0" fill="none" stroke="#6b3b2a" stroke-width="8" stroke-linecap="round" opacity=".55"/>
  </g>
  <text x="256" y="482" text-anchor="middle" font-family="Arial, sans-serif" font-size="28" font-weight="800" fill="#0f172a" opacity=".35">Original</text>
</svg>
